<?xml version="1.0" encoding="UTF-8" standalone="no" ?>
<!DOCTYPE svg PUBLIC "-//W3C//DTD SVG 1.1//EN" "http://www.w3.org/Graphics/SVG/1.1/DTD/svg11.dtd">
<svg xmlns="http://www.w3.org/2000/svg" xmlns:xlink="http://www.w3.org/1999/xlink" version="1.1" width="120" height="120" viewBox="-400 10 1520 1" xml:space="preserve">
<desc>Created with Fabric.js 5.2.4</desc>
<defs>
</defs>
<g transform="matrix(1 0 0 1 540 540)" id="fafef25c-40f8-4f05-acec-d906e8228569"  >
</g>
<g transform="matrix(1 0 0 1 540 540)" id="a1176458-54f1-431c-9d46-0098c5656b05"  >
<rect style="stroke: none; stroke-width: 1; stroke-dasharray: none; stroke-linecap: butt; stroke-dashoffset: 0; stroke-linejoin: miter; stroke-miterlimit: 4; fill: rgb(255,255,255); fill-rule: nonzero; opacity: 1; visibility: hidden;" vector-effect="non-scaling-stroke"  x="40" y="40" rx="0" ry="0" width="1120" height="1120" />
</g>
<g transform="matrix(1 0 0 1 446.37 918.94)"  >
<path style="stroke: none; stroke-width: 1; stroke-dasharray: none; stroke-linecap: butt; stroke-dashoffset: 0; stroke-linejoin: miter; stroke-miterlimit: 4; fill: rgb(255,255,255); fill-rule: nonzero; opacity: 1;" vector-effect="non-scaling-stroke"  transform=" translate(-562.47, -895.22)" d="M 553.7 888 C 552.2 891.1 548.9 893 545.5 892.4 C 544.6 892.2 544.2 893.7 545.1 893.8 C 549.2 894.5 553.3 892.5 555 888.7 C 555.4 887.9 554.2 887.1 553.7 888 L 553.7 888 Z M 567.6 887 C 570.9 890.2 575.3 891.6 579.8 890.9 C 580.8 890.8 580.3 889.3 579.4 889.5 C 575.4 890.1 571.5 888.8 568.6 886 C 567.9 885.3 566.9 886.3 567.6 887 L 567.6 887 Z M 562.3 896.5 C 562 896.5 561.8 896.4 561.5 896.4 C 561.6 896.3 561.6 896.1 561.7 896 C 561.9 896.2 562.2 896.4 562.4 896.6 C 562.4 896.4 562.3 896.3 562.3 896.1 C 562 895.2 560.6 895.6 560.9 896.5 C 561.4 898.7 562.2 902.1 559.5 903.2 C 558.6 903.6 559 905 559.9 904.6 C 563.5 903.1 563.1 899.2 562.4 896 C 561.9 896.1 561.4 896.3 561 896.4 C 561 896.6 561.1 896.7 561.1 896.9 C 561.2 897.2 561.5 897.5 561.8 897.5 C 564.4 897.3 562.3 893.7 561.1 895.8 C 560.6 896.5 561.8 897.3 562.3 896.5 L 562.3 896.5 Z" stroke-linecap="round" />
</g>
<g transform="matrix(1 0 0 1 445.57 915.77)"  >
<path style="stroke: none; stroke-width: 1; stroke-dasharray: none; stroke-linecap: butt; stroke-dashoffset: 0; stroke-linejoin: miter; stroke-miterlimit: 4; fill: rgb(255,255,255); fill-rule: nonzero; opacity: 1;" vector-effect="non-scaling-stroke"  transform=" translate(-561.68, -892.04)" d="M 561.3 897.2 C 561.8 898.9 561.9 900.8 563 902.3 C 563.9 903.5 565.3 904.1 566.8 903.8 C 567.7 903.6 567.3 902.2 566.4 902.4 C 563.6 903 563.2 898.6 562.7 896.8 C 562.5 895.9 561.1 896.3 561.3 897.2 Z M 556.5 898.6 C 553.6 897.3 550.6 896.7 547.4 896.9 C 546.4 897 546.4 898.5 547.4 898.4 C 550.3 898.2 553.1 898.7 555.7 899.9 C 556.6 900.3 557.4 899 556.5 898.6 L 556.5 898.6 Z M 553.9 900.6 C 551.4 900.8 549.2 901.8 547.5 903.5 C 546.8 904.2 547.9 905.2 548.6 904.6 C 550.1 903.2 551.9 902.3 554 902.1 C 554.8 902 554.8 900.5 553.9 900.6 Z M 568.2 897.9 C 571.1 896.8 574 896.4 577.1 896.7 C 578.1 896.8 578.1 895.3 577.1 895.2 C 573.9 894.9 570.8 895.4 567.8 896.5 C 566.9 896.8 567.2 898.3 568.2 897.9 L 568.2 897.9 Z M 570.2 900.6 C 572.4 900.3 574.5 900.5 576.6 901.3 C 577.5 901.6 577.9 900.2 577 899.9 C 574.8 899.1 572.5 898.9 570.2 899.2 C 569.2 899.2 569.2 900.8 570.2 900.6 Z M 546.6 883.6 C 548.1 882.7 549.9 882.7 551.4 883.6 C 552.2 884.1 553 882.8 552.2 882.3 C 550.2 881.2 547.9 881.2 545.9 882.3 C 545 882.8 545.8 884.1 546.6 883.6 Z M 567.6 881.6 C 569.1 880.8 570.8 880.6 572.6 880.8 C 573.5 880.9 574 879.5 573 879.4 C 570.9 879.1 568.8 879.4 566.9 880.4 C 565.9 880.7 566.7 882 567.6 881.6 L 567.6 881.6 Z" stroke-linecap="round" />
</g>
<g transform="matrix(1 0 0 1 339.05 370.83)"  >
<path style="stroke: rgb(22,22,22); stroke-width: 3.5; stroke-dasharray: none; stroke-linecap: butt; stroke-dashoffset: 0; stroke-linejoin: miter; stroke-miterlimit: 4; fill: rgb(255,255,255); fill-rule: nonzero; opacity: 1;" vector-effect="non-scaling-stroke"  transform=" translate(-455.15, -347.1)" d="M 841.3 570.7 C 590.6 588.8 339.9 606.8 89.3 624.9 C 82.5 443.1 75.7 261.3 69 79.5 L 824.4 69.3 C 830 236.4 835.6 403.5 841.3 570.7 Z" stroke-linecap="round" />
</g>
<g transform="matrix(1 0 0 1 341.6 392.23)"  >
<path style="stroke: none; stroke-width: 1; stroke-dasharray: none; stroke-linecap: butt; stroke-dashoffset: 0; stroke-linejoin: miter; stroke-miterlimit: 4; fill: rgb(22,22,22); fill-rule: nonzero; opacity: 1;" vector-effect="non-scaling-stroke"  transform=" translate(-457.7, -368.5)" d="M 282 168 L 427.9 168 C 429.8 168 429.8 165 427.9 165 L 282 165 C 280.1 165 280.1 168 282 168 Z M 336.6 180.3 L 486.9 180.3 C 488.8 180.3 488.8 177.3 486.9 177.3 L 336.6 177.3 C 334.6 177.3 334.6 180.3 336.6 180.3 Z M 99.4 473.7 C 101.2 515.5 103 557.4 104.8 599.2 C 104.9 601.1 107.9 601.1 107.8 599.2 C 106 557.4 104.2 515.5 102.4 473.7 C 102.3 471.8 99.3 471.8 99.4 473.7 Z M 319.7 449.3 L 332.7 449.3 C 334.6 449.3 334.6 446.3 332.7 446.3 L 319.7 446.3 C 317.8 446.3 317.8 449.3 319.7 449.3 Z M 344 449.3 L 377.2 449.3 C 379.1 449.3 379.1 446.3 377.2 446.3 L 344 446.3 C 342.1 446.3 342.1 449.3 344 449.3 Z M 402.3 447.7 L 442 447.7 C 443.9 447.7 443.9 444.7 442 444.7 L 402.3 444.7 C 400.4 444.7 400.4 447.7 402.3 447.7 Z M 337.6 470.3 L 386.2 470.3 C 388.1 470.3 388.1 467.3 386.2 467.3 L 337.6 467.3 C 335.6 467.3 335.6 470.3 337.6 470.3 Z M 361 459 L 417.7 459 C 419.6 459 419.6 456 417.7 456 L 361 456 C 359.1 456 359.1 459 361 459 Z M 461.4 565.9 L 556.9 565.9 C 558.8 565.9 558.8 562.9 556.9 562.9 L 461.4 562.9 C 459.5 562.9 459.5 565.9 461.4 565.9 Z M 539.9 574 L 590.1 574 C 592 574 592 571 590.1 571 L 539.9 571 C 538 571 538 574 539.9 574 Z M 583.6 561.8 L 633 561.8 C 634.9 561.8 634.9 558.8 633 558.8 L 583.6 558.8 C 581.7 558.8 581.7 561.8 583.6 561.8 Z M 667.8 290.7 L 759.3 290.7 C 761.2 290.7 761.2 287.7 759.3 287.7 L 667.8 287.7 C 665.9 287.7 665.9 290.7 667.8 290.7 Z M 639.5 295.5 L 668.6 295.5 C 670.5 295.5 670.5 292.5 668.6 292.5 L 639.5 292.5 C 637.5 292.5 637.5 295.5 639.5 295.5 Z M 645.1 303.6 L 743 303.6 C 744.9 303.6 744.9 300.6 743 300.6 L 645.1 300.6 C 643.2 300.6 643.2 303.6 645.1 303.6 Z M 765.8 296.3 L 784.4 296.3 C 786.3 296.3 786.3 293.3 784.4 293.3 L 765.8 293.3 C 763.8 293.3 763.8 296.3 765.8 296.3 Z M 741.5 418.5 L 769 418.5 C 770.9 418.5 770.9 415.5 769 415.5 L 741.5 415.5 C 739.5 415.5 739.5 418.5 741.5 418.5 Z M 723.7 426.6 L 753.6 426.6 C 755.5 426.6 755.5 423.6 753.6 423.6 L 723.7 423.6 C 721.7 423.6 721.7 426.6 723.7 426.6 Z M 738.2 434.7 L 797.3 434.7 C 799.2 434.7 799.2 431.7 797.3 431.7 L 738.2 431.7 C 736.3 431.7 736.3 434.7 738.2 434.7 Z M 775.5 425 L 793.3 425 C 795.2 425 795.2 422 793.3 422 L 775.5 422 C 773.5 422 773.5 425 775.5 425 Z M 363.6 300.3 L 405.5 300.3 C 407.4 300.3 407.4 297.3 405.5 297.3 L 363.6 297.3 C 361.7 297.3 361.7 300.3 363.6 300.3 Z M 394.1 308.9 L 456 308.9 C 457.9 308.9 457.9 305.9 456 305.9 L 394.1 305.9 C 392.2 305.9 392.1 308.9 394.1 308.9 Z M 448.4 297.4 L 483.6 297.4 C 485.5 297.4 485.5 294.4 483.6 294.4 L 448.4 294.4 C 446.5 294.4 446.5 297.4 448.4 297.4 Z M 90.5 137.8 L 97.1 365.6 C 97.7 387.2 98.3 408.7 99 430.3 C 99.1 432.2 102.1 432.2 102 430.3 L 95.4 202.5 C 94.8 180.9 94.2 159.4 93.5 137.8 C 93.5 135.9 90.5 135.9 90.5 137.8 Z M 817.4 385.9 L 821.9 536.4 C 822 538.3 825 538.3 824.9 536.4 L 820.4 385.9 C 820.4 384 817.4 384 817.4 385.9 L 817.4 385.9 Z" stroke-linecap="round" />
</g>
<g transform="matrix(1 0 0 1 512.6 439.33)"  >
<path style="stroke: none; stroke-width: 1; stroke-dasharray: none; stroke-linecap: butt; stroke-dashoffset: 0; stroke-linejoin: miter; stroke-miterlimit: 4; fill: rgb(242,64,136); fill-rule: nonzero; opacity: 1;" vector-effect="non-scaling-stroke"  transform=" translate(-628.7, -415.6)" d="M 610.3 362.9 C 610.9 369 611.5 375.2 612 381.3 C 617.8 379.8 623.5 378.2 629.3 376.7 C 628.5 370.6 627.8 364.4 627 358.3 C 621.4 359.8 615.9 361.4 610.3 362.9 Z M 606.8 409.6 C 612.8 408.8 618.7 408.1 624.7 407.3 C 625.5 414.6 626.2 421.9 627 429.2 C 621.6 429.4 616.2 429.6 610.9 429.8 C 609.5 423 608.2 416.3 606.8 409.6 L 606.8 409.6 Z M 628.7 453.9 C 630.6 460.2 632.5 466.6 634.5 472.9 C 639.9 470.4 645.3 467.9 650.6 465.4 C 648.9 459.8 647.1 454.3 645.4 448.7 C 639.9 450.5 634.3 452.2 628.7 453.9 L 628.7 453.9 Z" stroke-linecap="round" />
</g>
<g transform="matrix(1 0 0 1 171.2 565.93)"  >
<path style="stroke: none; stroke-width: 1; stroke-dasharray: none; stroke-linecap: butt; stroke-dashoffset: 0; stroke-linejoin: miter; stroke-miterlimit: 4; fill: rgb(242,64,136); fill-rule: nonzero; opacity: 1;" vector-effect="non-scaling-stroke"  transform=" translate(-287.3, -542.2)" d="M 233.4 513.5 C 234.7 532.9 236 552.3 237.3 571.6 C 271.3 569.4 305.3 567.3 339.3 565.1 C 339.9 547.7 340.6 530.2 341.2 512.8 C 305.3 513.1 269.3 513.3 233.4 513.5 L 233.4 513.5 Z" stroke-linecap="round" />
</g>
<g transform="matrix(1 0 0 1 540 136.63)" id="Oval"  >
<ellipse style="stroke: none; stroke-width: 1; stroke-dasharray: none; stroke-linecap: butt; stroke-dashoffset: 0; stroke-linejoin: miter; stroke-miterlimit: 4; fill: rgb(242,64,136); fill-rule: nonzero; opacity: 1;" vector-effect="non-scaling-stroke"  cx="0" cy="0" rx="7.1" ry="5.9" />
</g>
<g transform="matrix(1 0 0 1 57.5 182.83)" id="Oval"  >
<ellipse style="stroke: none; stroke-width: 1; stroke-dasharray: none; stroke-linecap: butt; stroke-dashoffset: 0; stroke-linejoin: miter; stroke-miterlimit: 4; fill: rgb(236,97,91); fill-rule: nonzero; opacity: 1;" vector-effect="non-scaling-stroke"  cx="0" cy="0" rx="5.9" ry="3.9" />
</g>
<g transform="matrix(1 0 0 1 151.4 294.43)" id="Oval"  >
<ellipse style="stroke: none; stroke-width: 1; stroke-dasharray: none; stroke-linecap: butt; stroke-dashoffset: 0; stroke-linejoin: miter; stroke-miterlimit: 4; fill: rgb(236,97,91); fill-rule: nonzero; opacity: 1;" vector-effect="non-scaling-stroke"  cx="0" cy="0" rx="4.6" ry="5.4" />
</g>
<g transform="matrix(1 0 0 1 85.15 246.83)"  >
<path style="stroke: none; stroke-width: 1; stroke-dasharray: none; stroke-linecap: butt; stroke-dashoffset: 0; stroke-linejoin: miter; stroke-miterlimit: 4; fill: rgb(109,108,108); fill-rule: nonzero; opacity: 0.21;" vector-effect="non-scaling-stroke"  transform=" translate(-201.25, -223.1)" d="M 225.3 141.4 C 227.1 141.1 230.6 157.8 239.2 188.1 C 250.5 228 261.7 260.2 269.8 282.2 C 257.5 289.8 230 304.3 192.5 304.8 C 166 305.1 145.1 298.3 132.7 293.1 C 157 295.8 176.6 295.1 190.3 293.8 C 212 291.8 208.2 289.5 224.6 288.7 C 231.4 288.4 240.3 288.4 249.4 282.9 C 252.7 280.9 255.1 278.7 256.7 277.1 C 250.3 263.9 242.1 244.5 235.5 220.2 C 225 180.7 222.7 141.9 225.3 141.4 L 225.3 141.4 Z" stroke-linecap="round" />
</g>
<g transform="matrix(1 0 0 1 188.45 360.53)"  >
<path style="stroke: none; stroke-width: 1; stroke-dasharray: none; stroke-linecap: butt; stroke-dashoffset: 0; stroke-linejoin: miter; stroke-miterlimit: 4; fill: rgb(109,108,108); fill-rule: nonzero; opacity: 0.25;" vector-effect="non-scaling-stroke"  transform=" translate(-304.55, -336.8)" d="M 319 249.9 C 320.6 262.6 323.5 276.8 328.3 292 C 342 335.2 365.1 366 382.5 385 C 372.1 392.7 359.2 400.7 343.7 407.4 C 296.7 427.7 252.8 424.7 229.3 421.1 L 226.6 405.2 C 236.6 405.5 247.2 405.3 258.3 404.7 C 297.9 402.2 331.9 393.3 359 383.4 C 350.4 368.8 344.2 356.2 339.9 346.7 C 329.5 324 321.8 306.9 319.1 283.8 C 317.4 269.7 318.1 257.8 319 249.9 L 319 249.9 Z" stroke-linecap="round" />
</g>
<g transform="matrix(1 0 0 1 488.2 446.07)"  >
<path style="stroke: none; stroke-width: 1; stroke-dasharray: none; stroke-linecap: butt; stroke-dashoffset: 0; stroke-linejoin: miter; stroke-miterlimit: 4; fill: rgb(109,108,108); fill-rule: nonzero; opacity: 0.14;" vector-effect="non-scaling-stroke"  transform=" translate(-604.3, -422.34)" d="M 636.9 316.1 C 637.9 338.9 640.3 357.8 642.4 371.4 C 647.3 402.6 650.9 424.2 663.7 448.5 C 671.7 463.6 680.7 474.7 687.2 481.9 C 675.9 491.6 660.7 502.6 641.2 511.4 C 592.2 533.7 546.2 529.2 524.7 525.6 C 523.6 520.7 522.5 515.8 521.4 510.8 C 524.1 511 528.3 511.2 533.4 511.3 C 550.4 511.7 585.8 512.3 626.4 498.7 C 637.8 494.9 653.8 488.5 671.8 477.9 C 664.7 468.4 657.7 457.1 651.6 444 C 627.5 392.3 632.3 342.1 636.9 316.1 L 636.9 316.1 Z" stroke-linecap="round" />
</g>
<g transform="matrix(1 0 0 1 563.1 209.53)"  >
<path style="stroke: none; stroke-width: 1; stroke-dasharray: none; stroke-linecap: butt; stroke-dashoffset: 0; stroke-linejoin: miter; stroke-miterlimit: 4; fill: rgb(109,108,108); fill-rule: nonzero; opacity: 0.18;" vector-effect="non-scaling-stroke"  transform=" translate(-679.2, -185.8)" d="M 713.5 91.8 C 715.5 101.1 718.4 115.3 721.3 133 C 726.7 167.2 726.3 179.6 732.6 199.8 C 735.9 210.3 741.8 225.2 752.9 242.2 C 743.6 249.8 732 257.7 717.7 264.3 C 670.9 286 626.1 279.9 605.5 275.6 C 605.7 271.6 605.9 267.6 606.1 263.7 C 608.7 264.4 612.6 265.3 617.4 266.1 C 623.7 267.1 647 270.5 690.8 259.5 C 702.9 256.5 719.2 251.7 737.9 244 C 734.3 237.6 729 227.6 724.2 214.8 C 710.2 177.7 710.3 145.5 710.5 128.9 C 710.6 119.8 711.2 107.1 713.5 91.8 L 713.5 91.8 Z" stroke-linecap="round" />
</g>
<g transform="matrix(1 0 0 1 4.08 237.94)"  >
<path style="stroke: none; stroke-width: 1; stroke-dasharray: none; stroke-linecap: butt; stroke-dashoffset: 0; stroke-linejoin: miter; stroke-miterlimit: 4; fill: rgb(22,22,22); fill-rule: nonzero; opacity: 1;" vector-effect="non-scaling-stroke"  transform=" translate(-9.18, -125.21)" d="M 4.7 46.7 C -5.2 99.1 4.8 152.1 14.8 203.7 C 15.2 205.6 18.1 204.8 17.7 202.9 C 7.8 151.9 -2.1 99.4 7.6 47.5 C 7.9 45.7 5 44.8 4.7 46.7 Z" stroke-linecap="round" />
</g>
<g transform="matrix(1 0 0 1 72.57 228.99)"  >
<path style="stroke: none; stroke-width: 1; stroke-dasharray: none; stroke-linecap: butt; stroke-dashoffset: 0; stroke-linejoin: miter; stroke-miterlimit: 4; fill: rgb(22,22,22); fill-rule: nonzero; opacity: 1;" vector-effect="non-scaling-stroke"  transform=" translate(-77.67, -116.26)" d="M 7.5 46.3 C 21.8 55.9 39.1 57.6 56 56.4 C 75.3 55 94.4 50.9 113.5 47.7 C 115.4 47.4 114.6 44.5 112.7 44.8 C 94.4 47.8 76.1 51.7 57.6 53.2 C 40.7 54.6 23.4 53.3 9 43.6 C 7.4 42.6 5.9 45.2 7.5 46.3 L 7.5 46.3 Z M 111.5 49.8 C 114.3 97.6 121.5 146.4 145.7 188.4 C 146.7 190.1 149.3 188.6 148.3 186.9 C 124.4 145.3 117.3 97 114.5 49.8 C 114.4 47.9 111.4 47.9 111.5 49.8 Z" stroke-linecap="round" />
</g>
<g transform="matrix(1 0 0 1 77.15 248.87)"  >
<path style="stroke: none; stroke-width: 1; stroke-dasharray: none; stroke-linecap: butt; stroke-dashoffset: 0; stroke-linejoin: miter; stroke-miterlimit: 4; fill: rgb(22,22,22); fill-rule: nonzero; opacity: 1;" vector-effect="non-scaling-stroke"  transform=" translate(-82.25, -136.14)" d="M 17.3 204.5 C 40 211.1 64.4 207.1 87.5 205.2 C 108 203.5 130 202.7 147.6 190.7 C 149.2 189.6 147.7 187 146.1 188.1 C 128.4 200.2 106.2 200.6 85.6 202.3 C 63.4 204.1 40 207.8 18.1 201.5 C 16.2 201.1 15.4 204 17.3 204.5 L 17.3 204.5 Z M 55.7 70.7 C 53.7 69.8 55.9 67.9 57.1 67.6 C 58.6 67.2 61.5 67 62.2 68.7 C 62.7 70 61.9 71.7 60.7 72.2 C 58.8 73.1 56.7 72 55.4 70.7 C 54 69.3 51.9 71.4 53.3 72.8 C 55.8 75.3 59.9 76.6 63 74.3 C 65.5 72.5 66.4 68.5 64.3 66.1 C 61.9 63.4 56.8 63.7 54.1 65.7 C 51.7 67.5 51.2 71.8 54.3 73.2 C 56 74.1 57.5 71.5 55.7 70.7 L 55.7 70.7 Z" stroke-linecap="round" />
</g>
<g transform="matrix(1 0 0 1 165.98 349.45)"  >
<path style="stroke: none; stroke-width: 1; stroke-dasharray: none; stroke-linecap: butt; stroke-dashoffset: 0; stroke-linejoin: miter; stroke-miterlimit: 4; fill: rgb(22,22,22); fill-rule: nonzero; opacity: 1;" vector-effect="non-scaling-stroke"  transform=" translate(-171.08, -236.73)" d="M 95.8 204.9 C 88.6 241.4 96.3 278.3 104.1 314.1 C 104.5 316 107.4 315.2 107 313.3 C 99.3 278.1 91.7 241.7 98.7 205.7 C 99.1 203.8 96.2 203 95.8 204.9 L 95.8 204.9 Z M 137.1 166.6 C 160.2 162.2 183.6 160.6 207 161.5 L 205.5 160 C 200.8 208.2 221.4 254.1 246.4 294 C 247.4 295.6 250 294.1 249 292.5 C 224.3 253 203.8 207.7 208.5 160 C 208.6 159.2 207.7 158.5 207 158.5 C 183.3 157.6 159.6 159.3 136.3 163.7 C 134.4 164.1 135.2 167 137.1 166.6 L 137.1 166.6 Z" stroke-linecap="round" />
</g>
<g transform="matrix(1 0 0 1 246.37 276.28)"  >
<path style="stroke: none; stroke-width: 1; stroke-dasharray: none; stroke-linecap: butt; stroke-dashoffset: 0; stroke-linejoin: miter; stroke-miterlimit: 4; fill: rgb(22,22,22); fill-rule: nonzero; opacity: 1;" vector-effect="non-scaling-stroke"  transform=" translate(-251.48, -163.55)" d="M 105.7 316.2 C 154.3 321.9 203.6 314.6 248.6 295.4 C 250.4 294.6 248.8 292.1 247.1 292.8 C 202.7 311.8 153.7 318.8 105.7 313.2 C 103.8 313 103.8 316 105.7 316.2 L 105.7 316.2 Z M 155.9 178.9 C 155.9 178.8 156.2 178.3 156.2 178.1 C 156.3 177.7 156.6 177.3 156.9 177 C 157.5 176.5 158.2 176.1 159 176 C 160.5 175.8 161.9 176.6 162.3 178.1 C 162.6 179.3 162.1 180.9 160.7 181.1 C 159.4 181.3 158.2 180.4 158 179.1 C 157.7 177.2 154.8 178 155.1 179.9 C 155.6 183.4 160.1 185.1 163 183.4 C 166.2 181.5 166 176.6 163.3 174.3 C 160.3 171.8 155.3 173.1 153.6 176.5 C 152.8 178.2 152.8 180.5 154.7 181.5 C 156.2 182.3 158.4 181.6 158.8 179.7 C 159.1 177.8 156.2 177 155.9 178.9 L 155.9 178.9 Z M 14.6 101.1 C 41.2 104.8 67.6 99.3 93.1 92 C 95 91.5 94.2 88.6 92.3 89.1 C 67.3 96.2 41.4 101.8 15.4 98.2 C 13.5 97.9 12.7 100.8 14.6 101.1 L 14.6 101.1 Z M 19.6 120.7 C 33.4 122.2 47.2 120.8 60.5 116.6 C 62.3 116 61.6 113.1 59.7 113.7 C 46.7 117.8 33.2 119.1 19.6 117.7 C 17.7 117.5 17.7 120.5 19.6 120.7 L 19.6 120.7 Z M 19.6 144.9 C 46 148 72.6 146.1 98.2 139.4 C 100.1 138.9 99.3 136 97.4 136.5 C 72 143.2 45.7 145 19.6 141.9 C 17.7 141.6 17.7 144.6 19.6 144.9 Z M 118.4 298.4 C 144.9 299.6 171.4 296.4 196.8 288.8 C 198.6 288.3 197.9 285.4 196 285.9 C 170.8 293.4 144.7 296.6 118.4 295.4 C 116.4 295.3 116.4 298.3 118.4 298.4 Z M 123.5 275.5 C 135.3 275.1 147.1 274.2 158.9 272.9 C 160.8 272.7 160.8 269.7 158.9 269.9 C 147.1 271.2 135.4 272.1 123.5 272.5 C 121.6 272.6 121.6 275.6 123.5 275.5 Z M 133.1 234.3 C 140.9 235.3 149 233.3 156.7 232.2 C 165.2 230.9 173.6 229.7 182.1 228.4 C 184 228.1 183.2 225.2 181.3 225.5 C 173.5 226.7 165.6 227.9 157.8 229 C 149.7 230.2 141.3 232.4 133.1 231.3 C 131.2 231 131.2 234 133.1 234.3 Z M 486.5 10.1 C 475.6 63.6 474.5 118.6 483.2 172.5 C 483.5 174.4 486.4 173.6 486.1 171.7 C 477.5 118.4 478.7 63.8 489.4 10.9 C 489.8 9 486.9 8.2 486.5 10.1 Z" stroke-linecap="round" />
</g>
<g transform="matrix(1 0 0 1 540.24 118.17)"  >
<path style="stroke: none; stroke-width: 1; stroke-dasharray: none; stroke-linecap: butt; stroke-dashoffset: 0; stroke-linejoin: miter; stroke-miterlimit: 4; fill: rgb(22,22,22); fill-rule: nonzero; opacity: 1;" vector-effect="non-scaling-stroke"  transform=" translate(-545.34, -5.44)" d="M 489.9 10.8 C 526.2 2.5 563.7 0.8 600.7 5.8 C 602.6 6.1 603.4 3.2 601.5 2.9 C 564 -2.2 526 -0.5 489.1 7.9 C 487.3 8.4 488.1 11.3 489.9 10.8 L 489.9 10.8 Z" stroke-linecap="round" />
</g>
<g transform="matrix(1 0 0 1 608.8 191.49)"  >
<path style="stroke: none; stroke-width: 1; stroke-dasharray: none; stroke-linecap: butt; stroke-dashoffset: 0; stroke-linejoin: miter; stroke-miterlimit: 4; fill: rgb(22,22,22); fill-rule: nonzero; opacity: 1;" vector-effect="non-scaling-stroke"  transform=" translate(-613.9, -78.76)" d="M 599.8 3.1 C 598.7 54.6 599.4 109 625.5 155.1 C 626.5 156.8 629 155.3 628.1 153.6 C 602.3 108 601.7 54.1 602.8 3.1 C 602.9 1.2 599.9 1.2 599.8 3.1 L 599.8 3.1 Z" stroke-linecap="round" />
</g>
<g transform="matrix(1 0 0 1 365.17 359.38)"  >
<path style="stroke: none; stroke-width: 1; stroke-dasharray: none; stroke-linecap: butt; stroke-dashoffset: 0; stroke-linejoin: miter; stroke-miterlimit: 4; fill: rgb(22,22,22); fill-rule: nonzero; opacity: 1;" vector-effect="non-scaling-stroke"  transform=" translate(-370.27, -246.65)" d="M 485.5 174.1 C 496.7 177.5 508.7 177.7 520.3 177.8 C 532.8 177.9 545.3 177.1 557.8 175.4 C 581.7 172.2 605 165.7 627.3 156.3 C 629.1 155.6 627.5 153 625.8 153.7 C 603.5 163.1 580 169.5 556 172.6 C 544.8 174 533.5 174.8 522.2 174.7 C 510.3 174.7 497.8 174.6 486.4 171.1 C 484.4 170.7 483.7 173.6 485.5 174.1 L 485.5 174.1 Z M 546.7 14 C 543.3 15.2 541.8 19.1 543 22.4 C 544.4 26.1 548.7 27 551.9 24.8 C 555 22.6 556 18.2 553 15.4 C 550.4 13 545.9 12.9 543.5 15.5 C 542.2 16.9 544.3 19 545.6 17.6 C 548.6 14.4 554.5 18.9 550.4 22.1 C 548.8 23.3 546.5 23.3 545.8 21.2 C 545.3 19.6 545.8 17.4 547.5 16.8 C 549.3 16.2 548.5 13.3 546.7 14 L 546.7 14 Z M 488 56.6 C 515.3 57.3 542.5 56.8 569.7 55 C 571.6 54.9 571.6 51.9 569.7 52 C 542.5 53.8 515.2 54.4 488 53.6 C 486 53.6 486 56.6 488 56.6 Z M 490.7 71.8 C 500.9 72.2 511.1 72.6 521.2 73 C 523.1 73.1 523.1 70.1 521.2 70 C 511 69.6 500.8 69.2 490.7 68.8 C 488.7 68.7 488.7 71.7 490.7 71.8 Z M 487.9 93 C 513.6 94.4 539.6 95.6 564.9 90 C 566.8 89.6 566 86.7 564.1 87.1 C 539 92.6 513.3 91.4 487.9 90 C 486 89.9 486 92.9 487.9 93 Z M 115.1 418.1 C 112.8 438.1 112 458.2 112.7 478.3 C 112.8 480.2 115.8 480.2 115.7 478.3 C 115 458.2 115.8 438.1 118.1 418.1 C 118.3 416.2 115.3 416.2 115.1 418.1 Z" stroke-linecap="round" />
</g>
<g transform="matrix(1 0 0 1 164.44 529.72)"  >
<path style="stroke: none; stroke-width: 1; stroke-dasharray: none; stroke-linecap: butt; stroke-dashoffset: 0; stroke-linejoin: miter; stroke-miterlimit: 4; fill: rgb(22,22,22); fill-rule: nonzero; opacity: 1;" vector-effect="non-scaling-stroke"  transform=" translate(-169.55, -417)" d="M 116.1 419.3 C 151.7 419.3 187.4 418.8 223 417.7 C 224.9 417.6 224.9 414.6 223 414.7 C 187.4 415.8 151.7 416.3 116.1 416.3 C 114.2 416.3 114.2 419.3 116.1 419.3 Z" stroke-linecap="round" />
</g>
<g transform="matrix(1 0 0 1 219.55 555.08)"  >
<path style="stroke: none; stroke-width: 1; stroke-dasharray: none; stroke-linecap: butt; stroke-dashoffset: 0; stroke-linejoin: miter; stroke-miterlimit: 4; fill: rgb(22,22,22); fill-rule: nonzero; opacity: 1;" vector-effect="non-scaling-stroke"  transform=" translate(-224.65, -442.35)" d="M 222.7 416.3 L 223.6 468.4 C 223.6 470.3 226.6 470.3 226.6 468.4 L 225.7 416.3 C 225.7 414.4 222.6 414.4 222.7 416.3 Z" stroke-linecap="round" />
</g>
<g transform="matrix(1 0 0 1 250.24 476.29)"  >
<path style="stroke: none; stroke-width: 1; stroke-dasharray: none; stroke-linecap: butt; stroke-dashoffset: 0; stroke-linejoin: miter; stroke-miterlimit: 4; fill: rgb(22,22,22); fill-rule: nonzero; opacity: 1;" vector-effect="non-scaling-stroke"  transform=" translate(-255.34, -363.56)" d="M 112.4 476.1 C 112.6 482.6 123.9 479.7 127.6 479.5 C 138.2 478.8 148.8 478.1 159.3 477.3 C 180.8 475.8 202.3 474.4 223.8 472.9 C 225.7 472.8 225.7 469.8 223.8 469.9 C 205.5 471.1 187.3 472.4 169 473.6 L 142.9 475.4 C 140.3 475.6 115.4 478 115.3 476.1 C 115.4 474.2 112.4 474.2 112.4 476.1 L 112.4 476.1 Z M 124.2 432.8 C 148.2 431.7 172.2 432.6 196 435.6 C 197.9 435.8 197.9 432.8 196 432.6 C 172.2 429.6 148.2 428.7 124.2 429.8 C 122.2 429.9 122.2 432.9 124.2 432.8 Z M 125.1 448 C 138.5 447 152 445.9 165.4 444.9 C 167.3 444.8 167.3 441.8 165.4 441.9 C 152 442.9 138.5 444 125.1 445 C 123.2 445.1 123.2 448.1 125.1 448 Z M 129.6 463.3 C 148.9 460.8 169.9 455.7 189.3 459.2 C 191.2 459.5 192 456.7 190.1 456.3 C 170.3 452.7 149.3 457.7 129.6 460.3 C 127.8 460.6 127.7 463.6 129.6 463.3 Z M 389.7 247.9 C 373.8 304.5 375.8 365.1 395.3 420.6 C 395.9 422.4 398.8 421.6 398.2 419.8 C 378.9 364.8 376.9 304.8 392.6 248.7 C 393.1 246.8 390.2 246 389.7 247.9 L 389.7 247.9 Z" stroke-linecap="round" />
</g>
<g transform="matrix(1 0 0 1 452.34 351.5)"  >
<path style="stroke: none; stroke-width: 1; stroke-dasharray: none; stroke-linecap: butt; stroke-dashoffset: 0; stroke-linejoin: miter; stroke-miterlimit: 4; fill: rgb(22,22,22); fill-rule: nonzero; opacity: 1;" vector-effect="non-scaling-stroke"  transform=" translate(-457.44, -238.77)" d="M 391.7 248.9 C 436.2 248.7 480.5 242.9 523.6 231.6 C 525.5 231.1 524.7 228.2 522.8 228.7 C 480 239.9 436 245.7 391.7 245.9 C 389.7 245.9 389.7 248.9 391.7 248.9 Z" stroke-linecap="round" />
</g>
<g transform="matrix(1 0 0 1 537.25 421.77)"  >
<path style="stroke: none; stroke-width: 1; stroke-dasharray: none; stroke-linecap: butt; stroke-dashoffset: 0; stroke-linejoin: miter; stroke-miterlimit: 4; fill: rgb(22,22,22); fill-rule: nonzero; opacity: 1;" vector-effect="non-scaling-stroke"  transform=" translate(-542.35, -309.05)" d="M 522.8 229.8 C 521 257.6 522.2 285.6 527.2 313.1 C 529.7 327 532.7 340.9 538.2 353.9 C 543.7 366.8 551.3 378.5 560.2 389.2 C 561.4 390.7 563.6 388.6 562.3 387.1 C 553.2 376.2 545.5 364.1 540.1 350.9 C 535 338.3 532.2 324.8 529.9 311.5 C 525.1 284.6 524 257.1 525.7 229.8 C 525.9 227.9 522.9 227.9 522.8 229.8 L 522.8 229.8 Z" stroke-linecap="round" />
</g>
<g transform="matrix(1 0 0 1 471.41 449.33)"  >
<path style="stroke: none; stroke-width: 1; stroke-dasharray: none; stroke-linecap: butt; stroke-dashoffset: 0; stroke-linejoin: miter; stroke-miterlimit: 4; fill: rgb(22,22,22); fill-rule: nonzero; opacity: 1;" vector-effect="non-scaling-stroke"  transform=" translate(-476.51, -336.6)" d="M 395.7 422.2 C 452.3 426.2 511.4 419.8 561 390.6 C 562.7 389.6 561.2 387 559.5 388 C 510.2 417 451.7 423.1 395.7 419.2 C 393.8 419 393.8 422 395.7 422.2 Z M 455.9 257.9 C 454.2 255 457.6 251.4 460.5 253.7 C 463.6 256.2 460.3 260.2 457 258.9 C 455.2 258.2 454.4 261.1 456.2 261.8 C 458.9 262.9 462.2 261.7 463.8 259.3 C 465.6 256.6 464.8 253.2 462.3 251.3 C 456.9 247 450.1 253.7 453.3 259.4 C 454.3 261.1 456.9 259.6 455.9 257.9 L 455.9 257.9 Z M 392.7 292.4 C 422.6 291.9 452.5 289.8 482.3 286.2 C 484.2 286 484.2 283 482.3 283.2 C 452.6 286.9 422.7 288.9 392.7 289.4 C 390.8 289.5 390.8 292.5 392.7 292.4 Z M 493 272.3 C 493.9 276.9 494.8 281.6 495.7 286.2 C 496.1 288.1 499 287.3 498.6 285.4 C 497.7 280.8 496.8 276.1 495.9 271.5 C 495.6 269.6 492.7 270.4 493 272.3 Z" stroke-linecap="round" />
</g>
<g transform="matrix(1 0 0 1 497.8 381.92)"  >
<path style="stroke: none; stroke-width: 1; stroke-dasharray: none; stroke-linecap: butt; stroke-dashoffset: 0; stroke-linejoin: miter; stroke-miterlimit: 4; fill: rgb(22,22,22); fill-rule: nonzero; opacity: 1;" vector-effect="non-scaling-stroke"  transform=" translate(-502.9, -269.2)" d="M 495 271.9 C 500.5 271.1 506 270.3 511.6 269.4 C 513.5 269.1 512.7 266.2 510.8 266.5 C 505.3 267.3 499.8 268.1 494.2 269 C 492.3 269.3 493.1 272.2 495 271.9 Z" stroke-linecap="round" />
</g>
<g transform="matrix(1 0 0 1 508.2 387.26)"  >
<path style="stroke: none; stroke-width: 1; stroke-dasharray: none; stroke-linecap: butt; stroke-dashoffset: 0; stroke-linejoin: miter; stroke-miterlimit: 4; fill: rgb(22,22,22); fill-rule: nonzero; opacity: 1;" vector-effect="non-scaling-stroke"  transform=" translate(-513.3, -274.54)" d="M 510.7 268.5 C 511.5 272.8 512.2 277.1 513 281.3 C 513.3 283.2 516.2 282.4 515.9 280.5 C 515.1 276.2 514.4 271.9 513.6 267.7 C 513.3 265.9 510.4 266.7 510.7 268.5 Z" stroke-linecap="round" />
</g>
<g transform="matrix(1 0 0 1 501.21 414.63)"  >
<path style="stroke: none; stroke-width: 1; stroke-dasharray: none; stroke-linecap: butt; stroke-dashoffset: 0; stroke-linejoin: miter; stroke-miterlimit: 4; fill: rgb(22,22,22); fill-rule: nonzero; opacity: 1;" vector-effect="non-scaling-stroke"  transform=" translate(-506.31, -301.9)" d="M 498.2 288.5 C 504.1 287.3 509.7 285.7 515.3 283.5 C 517.1 282.8 516.3 279.9 514.5 280.6 C 508.9 282.7 503.2 284.4 497.4 285.6 C 495.5 286 496.3 288.9 498.2 288.5 Z M 498.7 275.3 C 499.8 277.8 501.3 279.8 503.5 281.5 C 504.3 282.1 505.8 282.1 506 280.8 C 506.8 275.4 508.7 270.6 511.9 266.1 C 513 264.5 510.4 263 509.3 264.6 C 506 269.2 503.9 274.4 503.1 280 C 503.9 279.8 504.8 279.6 505.6 279.3 C 503.7 277.8 502.3 276 501.3 273.7 C 500.5 272 497.9 273.5 498.7 275.3 L 498.7 275.3 Z M 499.8 318.2 C 498.2 325.4 498.9 332.4 501.8 339.1 C 502.6 340.9 505.1 339.3 504.4 337.6 C 501.8 331.7 501.3 325.3 502.7 319 C 503.1 317.1 500.2 316.3 499.8 318.2 Z" stroke-linecap="round" />
</g>
<g transform="matrix(1 0 0 1 506.47 436.47)"  >
<path style="stroke: none; stroke-width: 1; stroke-dasharray: none; stroke-linecap: butt; stroke-dashoffset: 0; stroke-linejoin: miter; stroke-miterlimit: 4; fill: rgb(22,22,22); fill-rule: nonzero; opacity: 1;" vector-effect="non-scaling-stroke"  transform=" translate(-511.57, -323.74)" d="M 501.8 319.2 C 507.8 318.2 513.8 317.3 519.8 316.3 L 518 314.5 C 517 320.9 517.7 327 520.2 333 C 520.9 334.8 523.8 334 523.1 332.2 C 520.8 326.8 520 321.1 520.9 315.3 C 521.1 314.1 520.3 313.3 519.1 313.5 C 513.1 314.4 507.1 315.4 501.1 316.4 C 499.1 316.6 499.9 319.5 501.8 319.2 L 501.8 319.2 Z" stroke-linecap="round" />
</g>
<g transform="matrix(1 0 0 1 507.34 461)"  >
<path style="stroke: none; stroke-width: 1; stroke-dasharray: none; stroke-linecap: butt; stroke-dashoffset: 0; stroke-linejoin: miter; stroke-miterlimit: 4; fill: rgb(22,22,22); fill-rule: nonzero; opacity: 1;" vector-effect="non-scaling-stroke"  transform=" translate(-512.44, -348.28)" d="M 503.1 339.2 C 509.7 339 516 337.7 522.2 335.5 C 524 334.8 523.2 331.9 521.4 332.6 C 515.5 334.8 509.4 336 503.1 336.2 C 501.2 336.2 501.2 339.2 503.1 339.2 L 503.1 339.2 Z M 504 325.3 C 504.9 327.9 506.4 329.7 508.8 331.1 C 509.9 331.7 510.9 330.9 511.1 329.8 C 511.7 324.5 513.1 319.4 515.3 314.5 C 516.1 312.8 513.5 311.2 512.7 313 C 510.3 318.4 508.8 324 508.1 329.8 C 508.9 329.4 509.6 328.9 510.4 328.5 C 508.7 327.5 507.7 326.3 507 324.4 C 506.3 322.7 503.4 323.5 504 325.3 L 504 325.3 Z M 506 364.6 C 506.7 371.3 508.5 377.6 511.5 383.6 C 512.3 385.3 514.9 383.8 514.1 382.1 C 511.4 376.6 509.7 370.7 509.1 364.6 C 508.8 362.7 505.8 362.7 506 364.6 Z" stroke-linecap="round" />
</g>
<g transform="matrix(1 0 0 1 516.74 479.43)"  >
<path style="stroke: none; stroke-width: 1; stroke-dasharray: none; stroke-linecap: butt; stroke-dashoffset: 0; stroke-linejoin: miter; stroke-miterlimit: 4; fill: rgb(22,22,22); fill-rule: nonzero; opacity: 1;" vector-effect="non-scaling-stroke"  transform=" translate(-521.84, -366.7)" d="M 507.4 364.3 C 515.1 365 522.3 363.6 529.2 360.2 C 528.5 359.9 527.7 359.6 527 359.3 C 528.3 365.4 531 370.7 535.2 375.4 C 536.5 376.8 538.6 374.7 537.3 373.3 C 533.5 369 531.1 364.2 529.9 358.6 C 529.7 357.6 528.5 357.3 527.7 357.7 C 521.3 360.8 514.5 362 507.4 361.4 C 505.5 361.2 505.5 364.2 507.4 364.3 Z" stroke-linecap="round" />
</g>
<g transform="matrix(1 0 0 1 501.28 460.03)"  >
<path style="stroke: none; stroke-width: 1; stroke-dasharray: none; stroke-linecap: butt; stroke-dashoffset: 0; stroke-linejoin: miter; stroke-miterlimit: 4; fill: rgb(22,22,22); fill-rule: nonzero; opacity: 1;" vector-effect="non-scaling-stroke"  transform=" translate(-506.39, -347.3)" d="M 514.2 384.7 C 522 381.8 529.7 378.7 537.2 375.3 C 539 374.5 537.4 371.9 535.7 372.7 C 528.4 376 520.9 379 513.4 381.8 C 511.6 382.5 512.4 385.4 514.2 384.7 Z M 512.6 369.6 C 515 371.7 520.5 378.9 523.3 373.6 C 524.6 371.2 524.3 367.9 525.1 365.2 C 526.3 361.4 528.3 357.9 530.9 354.9 C 532.1 353.4 530 351.3 528.8 352.8 C 526 356.1 523.8 359.7 522.5 363.9 C 521.9 365.8 521.4 367.8 521.1 369.8 C 520.7 372.3 520 371.7 518.1 370.5 C 516.9 369.7 515.8 368.5 514.7 367.5 C 513.3 366.2 511.2 368.3 512.6 369.6 L 512.6 369.6 Z M 395.4 341.3 C 423.4 341 451.3 338.7 478.9 334.3 C 480.8 334 480 331.1 478.1 331.4 C 450.7 335.7 423.1 338 395.4 338.2 C 393.5 338.3 393.5 341.3 395.4 341.3 Z M 392.2 300.7 C 410.3 301.2 428.3 300.6 446.3 299.1 C 448.2 298.9 448.2 295.9 446.3 296.1 C 428.3 297.6 410.2 298.1 392.2 297.7 C 390.3 297.6 390.3 300.6 392.2 300.7 Z M 396.5 347.2 C 415.5 348.1 434.5 347.4 453.3 345 C 455.2 344.8 455.2 341.8 453.3 342 C 434.4 344.3 415.4 345.1 396.5 344.2 C 394.6 344.1 394.6 347.1 396.5 347.2 Z M 459.7 343.6 C 465.1 343.7 470.4 343 475.6 341.3 C 477.4 340.7 476.6 337.8 474.8 338.4 C 469.9 340 464.9 340.7 459.7 340.6 C 457.8 340.6 457.8 343.6 459.7 343.6 L 459.7 343.6 Z M 406.7 384.8 C 429.5 383.4 452.2 381.3 474.8 378.2 C 476.7 377.9 476.7 374.9 474.8 375.2 C 452.2 378.2 429.5 380.4 406.7 381.8 C 404.7 381.9 404.7 384.9 406.7 384.8 Z M 409.3 391.8 L 431.8 391.8 C 433.7 391.8 433.7 388.8 431.8 388.8 L 409.3 388.8 C 407.4 388.8 407.4 391.8 409.3 391.8 Z M 415.8 398.5 C 427.5 397.8 439.2 396.7 450.9 395.3 C 460.3 394.1 470.4 393.6 478.5 388.1 C 480.1 387 478.6 384.4 477 385.5 C 468.5 391.3 457.1 391.6 447.2 392.7 C 436.8 393.9 426.3 394.8 415.9 395.5 C 413.9 395.6 413.8 398.6 415.8 398.5 L 415.8 398.5 Z M 530 317.7 C 548.2 316.8 566.3 314.4 584.2 310.6 C 583.6 310.3 583 309.9 582.4 309.6 C 590.8 334.6 603.2 357.9 619.1 379 C 620.2 380.5 622.9 379 621.7 377.5 C 606 356.7 593.7 333.6 585.3 308.9 C 585 308.1 584.3 307.7 583.5 307.9 C 565.9 311.7 548.1 314 530.1 314.9 C 528 314.8 528 317.8 530 317.7 L 530 317.7 Z" stroke-linecap="round" />
</g>
<g transform="matrix(1 0 0 1 358.66 383.76)"  >
<path style="stroke: none; stroke-width: 1; stroke-dasharray: none; stroke-linecap: butt; stroke-dashoffset: 0; stroke-linejoin: miter; stroke-miterlimit: 4; fill: rgb(22,22,22); fill-rule: nonzero; opacity: 1;" vector-effect="non-scaling-stroke"  transform=" translate(-363.76, -271.04)" d="M 533.1 402.1 C 535.8 405.9 538 409.9 539.9 414.2 C 540.1 414.8 541 415.1 541.6 414.9 C 556.3 410 570.8 404.6 585 398.5 C 592.2 395.4 599.3 392.2 606.4 388.8 C 609.8 387.2 613.2 385.5 616.5 383.8 C 618.5 382.8 620.8 382.2 621.5 380 C 621.7 379.4 621.4 378.6 620.8 378.3 C 619.9 377.8 619.4 377.8 618.5 378.3 C 617.9 378.6 617.6 379.4 617.8 380 C 617.8 380.1 617.9 380.2 617.9 380.3 C 618.4 382.2 621.3 381.4 620.8 379.5 C 620.8 379.4 620.7 379.3 620.7 379.2 C 620.5 379.8 620.2 380.3 620 380.9 L 619.3 380.9 C 619.1 380.3 618.8 379.8 618.6 379.2 C 618 381 611.7 382.9 610 383.8 C 607.2 385.2 604.4 386.5 601.5 387.9 C 594.8 391.1 588 394.1 581.1 397 C 567.9 402.6 554.4 407.6 540.8 412.1 C 541.4 412.3 541.9 412.6 542.5 412.8 C 540.7 408.5 538.4 404.5 535.7 400.7 C 534.6 399 532 400.5 533.1 402.1 L 533.1 402.1 Z M 550.5 325.5 C 550.3 324.2 552.7 323 553.6 323.9 C 554.8 325.1 552.8 327.3 551.4 326.8 C 549.6 326.1 548.8 329 550.6 329.7 C 554.9 331.3 559.1 325.1 555.8 321.8 C 554.3 320.3 552 320.4 550.2 321.3 C 548.3 322.3 547.3 324.2 547.7 326.3 C 547.9 328.2 550.8 327.3 550.5 325.5 Z M 107.4 245.5 C 118.5 245.7 129.7 245.2 140.7 243.7 C 152.2 242.1 163.6 238.8 175.3 239.3 C 177.2 239.4 177.2 236.4 175.3 236.3 C 164.6 235.9 154.2 238.6 143.7 240.2 C 131.7 242.1 119.5 242.8 107.3 242.5 C 105.5 242.5 105.5 245.5 107.4 245.5 L 107.4 245.5 Z M 109 212.4 C 126 213.7 143 212.2 159.5 207.9 C 161.4 207.4 160.6 204.5 158.7 205 C 142.4 209.2 125.8 210.7 109 209.4 C 107.1 209.3 107.1 212.3 109 212.4 Z M 493.8 128.2 C 492.1 139.2 490.7 151.1 497.6 160.7 C 498.7 162.3 501.3 160.8 500.2 159.2 C 493.8 150.3 495.2 139.2 496.7 129 C 497 127.1 494.1 126.3 493.8 128.2 Z" stroke-linecap="round" />
</g>
<g transform="matrix(1 0 0 1 530.66 246.7)"  >
<path style="stroke: none; stroke-width: 1; stroke-dasharray: none; stroke-linecap: butt; stroke-dashoffset: 0; stroke-linejoin: miter; stroke-miterlimit: 4; fill: rgb(22,22,22); fill-rule: nonzero; opacity: 1;" vector-effect="non-scaling-stroke"  transform=" translate(-535.76, -133.97)" d="M 494.7 128.1 C 518.5 129 542.3 126.7 565.5 121.2 C 564.9 120.9 564.3 120.5 563.7 120.2 C 565.8 130.5 569.8 140.1 575.4 148.9 C 576.4 150.5 579 149 578 147.4 C 572.5 138.8 568.7 129.4 566.6 119.4 C 566.4 118.6 565.5 118.2 564.8 118.4 C 541.9 123.8 518.4 126.1 494.8 125.2 C 492.8 125 492.8 128 494.7 128.1 L 494.7 128.1 Z" stroke-linecap="round" />
</g>
<g transform="matrix(1 0 0 1 583.28 148.26)"  >
<path style="stroke: rgb(22,22,22); stroke-width: 2; stroke-dasharray: none; stroke-linecap: butt; stroke-dashoffset: 0; stroke-linejoin: miter; stroke-miterlimit: 4; fill: rgb(255,255,255); fill-rule: nonzero; opacity: 1;" vector-effect="non-scaling-stroke"  transform=" translate(-699.39, -124.53)" d="M 698.9 105.7 C 694.9 107.7 689.4 111.2 685.1 117.2 C 682.8 120.3 680 124.4 679.6 130.2 C 679.5 132.5 679.2 137.5 682.4 140.8 C 683.3 141.8 685.7 143.7 697.5 143.3 C 708 142.9 713.3 142.7 716 139.9 C 721.2 134.5 719.3 124.3 716 118.2 C 710.8 108.5 700.6 106.1 698.9 105.7 Z" stroke-linecap="round" />
</g>
<g transform="matrix(1 0 0 1 847.26 163.66)"  >
<path style="stroke: none; stroke-width: 1; stroke-dasharray: none; stroke-linecap: butt; stroke-dashoffset: 0; stroke-linejoin: miter; stroke-miterlimit: 4; fill: rgb(22,22,22); fill-rule: nonzero; opacity: 1;" vector-effect="non-scaling-stroke"  transform=" translate(-963.36, -139.93)" d="M 960.5 139.5 C 962.3 140.1 963.8 141 965.1 142.3 C 966.1 143.3 967.7 141.7 966.7 140.7 C 965.1 139.1 963.2 138 961.1 137.3 C 959.7 136.9 959.1 139.1 960.5 139.5 Z" stroke-linecap="round" />
</g>
</svg>